<svg xmlns="http://www.w3.org/2000/svg" viewBox="0 0 115 115"><defs><style>.cls-1,.cls-2{fill:none;stroke-miterlimit:10;}.cls-1{stroke:#fff;}.cls-2{stroke:#000;stroke-width:7px;}</style></defs><title>Artboard 1</title><g id="Layer_1_copy" data-name="Layer 1 copy"><path d="M54.3,45.83a10.38,10.38,0,0,0,5.46,4.71l.19.06a9.91,9.91,0,0,0,7.25-.49c4.31-2,7.78-6.8,10.19-14.22a1.45,1.45,0,0,0-.51-1.58A31.73,31.73,0,0,1,69,25.77a1.59,1.59,0,0,0-1.74-.56A33.28,33.28,0,0,1,55.8,27.47a1.45,1.45,0,0,0-1.34,1C52,35.76,51.89,41.7,54.3,45.83ZM67.11,28.2a31.24,31.24,0,0,0,7.14,7.68c-2.06,6-5,9.95-8.2,11.53a7.06,7.06,0,0,1-5.12.47l-.09,0-.09,0a7.17,7.17,0,0,1-4-3.41c-1.8-3.22-1.74-8.07.13-14.15A32.17,32.17,0,0,0,67.11,28.2Z"/><path d="M103.16,26.41,54,10.47a9.43,9.43,0,0,0-11,6.25L24,75.31,10.31,70.88a1.49,1.49,0,0,0-1.83.92L6.05,79.32l-.24.74a9.42,9.42,0,0,0,6.25,11l47.67,15.46a9.54,9.54,0,0,0,11.9-6.07L90.6,42l13.66,4.43a1.48,1.48,0,0,0,1.82-.93L108.52,38A9.59,9.59,0,0,0,103.16,26.41ZM13,88.35a6.5,6.5,0,0,1-4.3-7.68l.18-.55L9,79.66l0-.09,1.78-5.5L55.71,88.64l-2,6.15a8.68,8.68,0,0,0-.43,3.5l.2,1.28a.35.35,0,0,0,0,.22,8.32,8.32,0,0,0,.34,1.12l.07.12c0,.22.18.37.21.58L13,88.26ZM68.76,99.66a6.94,6.94,0,0,1-3,3.69,6.28,6.28,0,0,1-5.12.46,5.79,5.79,0,0,1-1.74-.87,6.26,6.26,0,0,1-2.69-4.82,7.27,7.27,0,0,1,.28-2.44l2.44-7.52A1.48,1.48,0,0,0,58,86.34L26.72,76.2l19-58.59a6.51,6.51,0,0,1,7.68-4.3l1.1.36L95.11,26.84l-.12.07c-.15.15-.36.18-.51.33a.1.1,0,0,1-.13.07c-.15.15-.39.27-.54.43h0A9.39,9.39,0,0,0,91,31.3l-.06.18,0,.09-.08.28-.09.27-.12.37-.06.18-21.74,67ZM103.69,43.2l-12.29-4,1.79-5.5.38-1.19a8.24,8.24,0,0,1,1.24-1.94,6.27,6.27,0,0,1,5-2,4.93,4.93,0,0,1,1.16.18h0l1,.32h0a6.51,6.51,0,0,1,3.69,8Z"/><path d="M60.45,44.38a1.35,1.35,0,0,0,1.27-.2l7.34-5.42a1.45,1.45,0,1,0-1.67-2.36l-5.73,4.22-.75-2.37a1.44,1.44,0,0,0-2.73.93l1.41,4.41A1.23,1.23,0,0,0,60.45,44.38Z"/><path d="M66.62,76,39.39,67.13a1.5,1.5,0,0,0-1.83.93,1.48,1.48,0,0,0,.93,1.82l27.23,8.84a1.45,1.45,0,0,0,.9-2.75Z"/><path d="M69,68.72,41.73,59.89a1.45,1.45,0,1,0-.89,2.75l27.23,8.83A1.45,1.45,0,1,0,69,68.72Z"/><path d="M71.28,61.57,44.05,52.74a1.45,1.45,0,0,0-.89,2.75l27.23,8.83a1.45,1.45,0,0,0,.89-2.75Z"/><line class="cls-1" x1="21.74" y1="78.58" x2="96.18" y2="46.26"/><line class="cls-1" x1="19.31" y1="71.79" x2="93.76" y2="39.48"/><circle class="cls-1" cx="57.21" cy="57.28" r="40.38"/></g><g id="Layer_2" data-name="Layer 2"><path d="M77.57,15.53A46.45,46.45,0,1,0,99,77.63,46.46,46.46,0,0,0,77.57,15.53ZM39.46,93.7A40.52,40.52,0,1,1,93.63,75,40.52,40.52,0,0,1,39.46,93.7Z"/><line class="cls-2" x1="16.58" y1="76.91" x2="97.14" y2="41.87"/></g></svg>